<?xml version="1.0" encoding="UTF-8"?>
<svg width="637.8" height="148.4" version="1.1" xmlns="http://www.w3.org/2000/svg">
 <circle cx="68.6" cy="68.6" r="65.6" fill="#fcdd53" stroke="#e42a2b" stroke-width="6"/>
 <path d="m112.8 84c-2.2 2.6-4.2 4-7.8 4.6h-39.6c-2-1-2.2-2.4 0-3.4h22.4c2 0 3.8-0.6 5.2-2.4 6.6-8.8 14.2-17.2 20-26.8-2.6 2.4-4.2 3.8-8 4.4h-27.4c-2.8 0-5 1-6.8 3.4-5.4 7-11 13.8-16.4 20.8-14.2 17-24-20.4-4.8-14.4-2.6-3.4-5.4-6.6-8-10-2-2-5-2.2-7 0-12 15.2-12.2 38.6 12.8 40.8h53.2c4-5.8 8.2-11.4 12.2-17zm-8.2-47.6c-1.8 1.4-3 2-5.8 2h-24.2c-2.4 0-5.4 1-7 3l-15.4 19.6 4.4 5.6c1.8-2.2 3.6-4.4 5.4-6.6 1.8-2 3.8-2.8 6.6-2.8h15c7.6 0 17.4-16.4 21-20.8z" fill="#478c3e"/>
 <path d="m598.2 49.6-9.2 33.6h-13.2l15.2-55.2h13.4l11 33.4 9.2-33.4h13.2l-15.4 55.2h-13.2zm-53.2 14h13l-0.8-19.8zm23-35.6 4.4 55.2h-13.8l-0.6-10.2h-18.2l-6.2 10.2h-13.8l34.8-55.2zm-60.4 10.8h-15.8l3-10.8h44.6l-3 10.8h-15.6l-12.4 44.4h-13zm-55.6 26.6c0 6.2 3.2 10.4 10.2 9.2 9.8-2 9-14-2.6-15.2-9.8-1.2-14.8-9.2-12.4-18.6 4.2-9 11.2-12.8 21.4-14h0.2c7.6-1.6 19 0.4 20.2 10 0.2 1.6 0.6 4.8-0.4 6.4h-12.4c0-2.8-0.6-5.4-3.4-6.2-9.2-2.6-20.8 8.2-1.4 13.2 5 1.2 11.8 3 13.2 8.6 2 9.8-3.8 19-11.6 23.4-7.2 3-17.6 3.2-25 1.8-9.2-3.2-11-9-9.4-18.6zm-9.2-37.4c-5.2 18.4-10.2 36.8-15.2 55.2h-13.2l15.2-55.2zm-61.2 21.6 25.4-21.6h16l-27.2 22.8 13.8 32.4h-16.2l-9-23.4-7.2 6-5 17.4h-13l15.4-55.2h13zm-50.4 0.4h26l-2.8 10h-25.8l-3.4 12.4h29.6l-2.8 10.8h-43l15.2-55.2h42.4l-3 10.8h-29.2zm-49.6-11.8-3.2 11.8h10c3.6 0 7-1.6 8.4-5.8 0.8-2.6 0.2-4.6-2.4-5.6-3.4-1-9-0.4-12.8-0.4zm-6 21.4-3.6 13.6c7.4 0 18 2.2 20.8-7 0.8-4.8-2.6-6.6-6.8-6.6zm22.8-31.6c6.8 0 14.2 2.6 12.8 10.8-1 6.4-6.6 12.4-12.4 14.6v0.4c8.4 0 8.4 11 6.4 16.6-3 8.8-12.4 12.8-21.2 12.8h-28l15.2-55.2zm-55.2 11h-25.2l3.2-11h41.2l-2.6 10.2-36.4 34h28.6l-2.8 11h-44.8l3.2-11.6zm-62.2-11c-3 10.8-6.2 21.6-9.2 32.2-1.2 5.6-1 15 7.2 13.8 6.6-0.8 11.8-7.6 13.2-13.8 2.8-10.6 5.6-21.4 8.6-32.2h13c-4 14.6-6.2 34.4-15.6 47.2-6.6 6.4-12.6 9.2-22.4 9.2-15.8 0-19.6-7.2-17.6-22.2 3-11.4 6.2-22.8 9.4-34.2z" fill="#0f477f" fill-rule="evenodd"/>
 <path d="m530 121.2-9 17.2h-8.8l-0.8-28h9l-0.4 17.2 8.8-17.2h8.2l-0.8 17.2 9-17.2h9.4l-16.4 28h-9zm-19.4-11.4-1.8 6.6h-0.4c-2.8 0-3.4-0.2-6 0.8-3.8 2.2-5.6 5.2-6.8 9.8l-3 11.4h-10l9.2-28h8l-1.2 3.8c3.4-3.2 7.6-4.4 12-4.4zm-32.6-3.4 1.6-6.6h8.8l-1.8 6.6zm7.4 4-7.6 28h-8.6l7.8-28zm93.6 32.4c5.6 0 5.2 0 8.2-4.8l-4.2-27.6h10.2l1.2 17.4 9.2-17.4h9l-17.2 29.6c-4.6 7.4-8.8 8.4-18 8.4zm29.6-13.6h8.2c-0.4 1.8-0.4 2.6 0.8 4 3 2.4 6.4 0.4 8-2.4 0.8-5-9-3.4-12.4-6.8-0.8-1-1.2-1.6-1.2-3 0-2.8 0.8-5.4 2.6-7.6 1.2-1.2 2.6-2 4.2-2.6 2.6-1 5.2-1.2 7.8-1.2 1.8 0 3.2 0 5 0.2 5 0.8 5 4.4 5 8.2h-7.8l0.2-0.8c0-2.6-2-2.6-3.8-2.6-2.4 0-4.2 1-4.6 3.6 0 1.2 0.6 1.8 1.6 2.2 7.2 1.2 14.8 2.6 11.8 10.6-1.4 3.4-4 5.8-7.4 7.2-2.2 0.8-5 1-7.4 1-2 0-4 0-6-0.6-1.8-0.8-3-1.6-4.2-3-1.2-2.4-1.4-3.6-1-6.4zm-150-3.8c-3.6 0-9.8 1.4-11 5.2-0.8 1.6 0.6 2.8 2 3.4 6 0 7-4.2 9-8.6zm-15.4-6.2c0-6.4 8.4-8.8 13.8-9.6 5.2 0 9-0.2 11.6 4.4 0.2 1.4 0.4 2.2 0.2 3.6-1 5-6.2 16-4.2 20.6v0.2h-8.8v-2.4c-17.8 12.8-24.2-10.8-5.8-13.2 1.6-0.4 10.4-1.2 10.4-4.6 0-5.6-6.6-3.4-8.6-0.4 0 0.4-0.4 1.2-0.4 1.4zm126.2 6.2c-3.6 0-9.8 1.4-11 5.2-0.8 1.6 0.6 2.8 2 3.4 6 0 7-4.2 9-8.6zm-15.4-6.2c0-6.4 8.4-8.8 13.8-9.6 5.2 0 9-0.2 11.6 4.4 0.2 1.4 0.4 2.2 0.2 3.6-1 5-6.2 16-4.2 20.6v0.2h-8.8v-2.4c-17.8 12.8-24.2-10.8-5.8-13.2 1.6-0.4 10.4-1.2 10.4-4.6 0-5.6-6.6-3.4-8.6-0.4 0 0.4-0.4 1.2-0.4 1.4z" fill="#0f477f" fill-rule="evenodd"/>
</svg>
